<?xml version="1.0" encoding="UTF-8"?>
<!DOCTYPE svg PUBLIC "-//W3C//DTD SVG 1.1//EN" "http://www.w3.org/Graphics/SVG/1.1/DTD/svg11.dtd">
<!-- Creator: CorelDRAW (Wersja próbna) -->
<svg xmlns="http://www.w3.org/2000/svg" xml:space="preserve" width="509.5mm" height="150mm" version="1.1" style="shape-rendering:geometricPrecision; text-rendering:geometricPrecision; image-rendering:optimizeQuality; fill-rule:evenodd; clip-rule:evenodd"
viewBox="0 0 50950 15000"
 xmlns:xlink="http://www.w3.org/1999/xlink"
 xmlns:xodm="http://www.corel.com/coreldraw/odm/2003">
 <defs>
  <style type="text/css">
   <![CDATA[
    .fil0 {fill:black}
    .fil1 {fill:#FCFCFC}
   ]]>
  </style>
 </defs>
 <g id="Warstwa_x0020_1">
  <metadata id="CorelCorpID_0Corel-Layer"/>
  <g id="_2101499923664">
   <path class="fil0" d="M33119.9 11736.71c1102.64,-260.85 928.29,1467.93 -130.1,1708.46 -576.38,130.99 -925.38,-305.46 -737.65,-870.03 134.5,-404.47 438.1,-736.79 867.75,-838.43zm-13335 0c1102.64,-260.85 928.29,1467.93 -130.11,1708.46 -1139.21,258.91 -973.95,-1447.28 130.11,-1708.46zm11796.34 33.14c92.69,-58.99 564.73,-61.7 650.76,0 -250.68,176.18 -137.49,-179.45 -384.74,692.34 -58.28,205.46 -221.42,687.29 -220.72,879.67l158.73 48.58c3.86,1.66 14.23,14.85 16.95,9.63 2.72,-5.23 11.5,6.19 16.63,10.2 -76.61,45.48 -624.52,42.15 -685.78,0 200.5,-134.27 208.11,59.31 315.06,-315.9 46.46,-163 84.34,-309.35 132.17,-475.59 45.29,-157.41 90.23,-321.81 134.04,-475.68 105.39,-370.24 37.68,-309.16 -96.57,-357.64l-36.53 -15.61zm-1845.71 0c83.68,-54.03 471.02,-27.89 599.87,-26.81 194.71,1.63 386.46,21.22 525.52,109.12 534.17,337.68 340.91,1274.8 -378.79,1519.92 -297.29,101.25 -831.91,65.49 -1181.73,64.86 47.57,-94.29 -13.36,-20.39 95.87,-65.25 213.21,-87.58 227.42,-362.16 335.06,-749.92 282.31,-1016.99 224.8,-688.94 4.2,-851.92zm-3267.93 47.72c27.18,-63.33 2.14,-43.52 57.49,-74.55l1241.87 2.15c-15.87,90.09 -85.31,372.16 -157.08,419.05 -25.79,-56.86 -0.36,-204.52 -24.37,-294.28 -121.42,-55.54 -218.99,-46.35 -378.56,-47.49l-361.04 1301.26c-107.6,340.16 51.51,198.7 198.11,282.27 -72.91,57.96 -460.18,34.73 -573.58,33.02l-162.81 -28.73 126.29 -39.69c189.33,-55.53 209.47,-342.43 306.51,-671.54 74.16,-251.48 193.38,-614.15 240.41,-876.59 -653.82,5.71 -417.65,329.08 -604.26,332.68l91.02 -337.56zm-1405.55 1018.45c-5.07,215.92 -3.57,375.98 122.33,485.72 283.05,246.7 727.47,-50.41 543.55,-411.34 -163.25,-320.38 -841.96,-675.08 -367.76,-1088.93 279.36,-243.8 607.27,-6.69 692.98,-4.58 137.8,3.37 48.01,-57.76 180.06,-99.12 -13.43,102.85 -39.85,201.51 -63.6,304.96 -26.37,114.86 -20.47,231.85 -112.93,241.89 -0.85,-219.78 -19.71,-361.06 -177.74,-430.23 -161.8,-70.81 -345.99,-34.69 -421.97,85.77 -161.61,256.21 266.51,588.44 372.66,704.64 442.94,484.88 -52.2,960.43 -553.07,815.73 -54.33,-15.69 -165.75,-71.67 -213.38,-74.03 -128.53,-6.38 -60.76,54.07 -187.07,96.89 19.03,-109.47 85.28,-613.76 185.94,-627.37zm-2020.06 -1066.17c102.11,-67.3 1040.43,-31.78 1231.43,-23.74 -9.78,70.2 -35.98,147.65 -51.03,208.93 -19.04,77.5 -26.66,143.09 -78.55,182.62 -115.68,-250.02 105.4,-317.69 -666.31,-313.91l-184.12 686.52c647.02,-0.59 372.58,-176.75 582.82,-234.68 -21.05,111.21 -62.97,241.18 -92.83,351.8 -77.77,288.15 -36.64,268.96 -131.09,268.89 26.07,-86.25 15.21,-186.66 -7.63,-262.39 -126.9,-58.36 -213.05,-43.52 -378.04,-43.52 -37.62,159.15 -224.02,624.21 -154.67,746.48 14.84,12.32 505.93,127.29 790.69,-195.08 125.93,-142.56 61.08,-117.88 165.04,-155.04 -29.36,107.62 -101.83,399.98 -188.44,450.31l-1210.83 -5.71c-60.15,-11.55 -24.04,0.05 -54.89,-21.06 263.7,-177.9 159.14,170.44 425.81,-787.34 44.06,-158.22 87.61,-312.66 132.92,-475.76 119.4,-429.74 34.11,-255.23 -130.28,-377.32zm-1836.7 106.15c-171.72,-105.3 -162.02,-31.9 -200.1,-130.61l432.09 4.48 165.72 1349.06c31.21,-31.5 0.32,2.21 40.35,-45.72l224.5 -305.62c103.29,-151.74 711.52,-993.47 767.87,-1004.51 110.5,0.3 286.81,-25.06 363.05,26.77 -253.28,182.83 -152.13,-221.97 -412.62,691.74 -48.81,171.21 -230.71,722.78 -212.62,869.3 82.42,57.44 91.75,49.88 194.2,52.61l-7.75 55.59 -706.21 -19.32c106.25,-98.89 206.75,10.95 284.35,-189.01l313.22 -1103.34c-78.59,64.72 -673.25,908.32 -747.07,1012.51 -49.73,70.17 -79.37,103.04 -123.28,167.81 -57.25,84.45 -51.02,105.64 -148,125.96l-157.86 -1279.3c-43.9,46.84 -5.4,-20.75 -52.92,79.62 -74.33,157 -281.72,1010.41 -281.6,1101.99 50.92,24.41 134.58,32.48 184.42,74.26 -83.97,53.46 -491.08,58.61 -568.19,0 155.36,-103.71 207.91,40.82 299.74,-244.95 70.72,-220.06 346.09,-1171.5 348.71,-1289.32zm-3958.09 -106.15c79.23,-51.15 231.93,-26.77 334.97,-26.75 107.07,0.01 270.78,-19.39 338.69,26.75 -175.6,119.34 -200.95,-1.48 -290.14,287.14 -44.24,143.19 -83.06,304.23 -126.77,453.2l777.53 0.29c252.53,-873.88 169.04,-595.06 -32.15,-740.63 57.57,-37.39 512.84,-42.42 623.56,-21.33 60.64,11.55 24.68,0.08 56.31,21.33 -296.23,195.56 -183.77,-86.98 -412.85,696.83 -54.11,185.15 -221.65,697.83 -220.01,872.36 80.07,36.65 114.03,18.74 180.09,71.23 -76.14,49.15 -232.92,26.61 -338.66,26.81l-258.4 -5.55c-61.2,-11.81 -24.15,0.1 -54.95,-21.26 219.59,-147.11 185.56,46.85 297.31,-333.9 48.05,-163.71 100.47,-318.5 133.29,-485.97l-780.56 -0.03c-38.17,220.1 -181.6,540.41 -179.78,742.93 55.64,32.79 130.06,35.87 180.2,76.97 -73.15,46.16 -233.18,26.67 -342.54,26.84 -58.1,0.09 -131.68,4.25 -187.45,1.6l-123.22 -28.44c250.55,-171.43 151.11,179.19 397.06,-681.63 53.12,-185.9 225.55,-703.23 206.76,-891.79l-178.29 -67zm10607.6 0c75.27,-48.16 624.89,-49.97 720.98,-9.51 -162.16,157.26 -207.18,-74.35 -325.77,333.37 -157.08,540.09 -514.31,1289.11 179.96,1288.05 410.79,-0.64 509.82,-358.29 613.56,-708.3 25.2,-85.03 208.2,-695.53 193.54,-769.07 -18.89,-94.73 -96.6,-71.64 -175.9,-134.54l518.04 -8.21c3.55,-6.1 13.45,4.57 19.49,8.21l-59.42 24.3c-6.34,2.23 -13.82,4.23 -20.4,6.47 -141.87,48.38 -101.68,20.51 -143.78,94.55 -223.87,393.75 -167.77,1404.52 -802.6,1551.56 -415.37,96.22 -809.64,-126.85 -767.54,-532.79 32.87,-317 268.35,-770.4 254.26,-1069.65l-204.42 -74.44zm-3357.05 -9197.13c34.8,-236.36 -8.44,-496.25 18.62,-720.71 22.38,-185.61 83.6,-136.01 146.24,-223.09 109.32,-151.97 -146.66,-582.26 618.23,-493.15 251.43,29.3 259.76,220.93 264.25,481.6 87.54,57.9 158.29,68.63 172.07,208.11 90.44,915.61 -215.06,713.09 394.1,774.09 8.81,-1278.83 77.31,-787.45 174.92,-989.72 49.3,-412.21 -15.47,-476.33 450.82,-477.52 527.57,-1.34 323.7,177.29 430.07,469.31 48.43,132.94 127.74,24.33 161.32,290.02 44.85,354.79 -16.81,936.39 14.82,1332.67 414.63,29.28 562.54,97.71 819.23,293.15 533.79,406.44 131.05,499.78 643.08,479.37 66.67,-273.62 54.76,-362.71 239.34,-502.72 146.71,-111.29 352.72,-158.81 563.34,-70.91 401.47,167.54 341.82,599.42 341.82,1097.05 0,479.2 53.81,964.12 -346.63,1115.22 -216.14,81.56 -440.83,17.46 -580.56,-94.33 -174.56,-139.67 -146.9,-245.83 -223.03,-491.09l-237.42 13.78c-65.29,93.28 -510.87,641.15 -255.06,715.63l44.41 11.14c20.02,3.2 56.07,3.1 77.5,3.68 58.73,1.56 93.52,-3 155.14,6.24 86.55,12.97 159.43,52.16 216.63,94.9 416.14,310.97 208.17,896.78 -246.61,937.08 -103.26,9.15 -205.75,-20.71 -292.71,42.54 35.13,97.17 -45.25,73.24 274.89,84.1 578.64,19.64 834.63,1062.75 -257.29,1038.43 5.44,100.89 131.39,180.72 194.25,288.84 62.28,107.11 78.69,233.73 107.16,361.34 228.19,142.03 377.68,18.81 549.83,331.28 98.16,178.16 128.98,488.51 30.45,694.81 -206.15,431.64 -726.04,385.57 -1289.4,353.97 -531.33,-29.8 -1149.4,-2.04 -1690.44,-2.04l-3413.12 0c-548.07,0 -1150.18,-23.74 -1691.52,1.06 -239.1,10.96 -533.57,34.54 -742.46,-57.42 -154.61,-68.07 -330.29,-268.21 -345.93,-500.49 -44.17,-656.24 301.36,-777.28 904.6,-794.4 179.46,-487.03 401.11,-514.44 1002.18,-512.89 681.39,1.75 2451.31,30.99 3008.75,-3.2 324.02,-19.88 307.17,-146.19 541.3,-188.7 242.29,-43.99 485.44,3.27 731.4,-17.08l260.19 -2108.96 -4568.31 0.94c-45.89,444.51 56.96,662.98 -346.44,974.68 -93.69,72.4 -190.65,85.12 -277.38,142.83 -84.23,532.74 119.09,1114.71 -172.1,1120.03 -192.25,3.51 -118.52,-338.15 -118.52,-492.76 -0.01,-202.66 12.67,-440.98 -5.54,-638.76 -364.71,-120.63 -611.89,-320.3 -620.86,-788.45 -8.96,-467.53 -1.08,-934.73 0.11,-1403.83 1.09,-427.55 -75.32,-963.58 165.46,-1243.18 275.15,-319.51 551.27,-270.97 1089.35,-291.4 251.1,-567.26 377.36,-643.44 1159.26,-642.37 274.96,0.38 1592.16,16.79 1756.2,-8.72zm-24510.37 12716.09l50879.38 0 0 -15266.46 -50879.38 0 0 15266.46z"/>
   <path class="fil1" d="M28916.82 9213.14c-569.17,38.36 -2589.88,-56.81 -2822.27,59.49 -69.98,296.25 251.47,218.16 482.63,218.49 758.92,1.1 1589.81,-34.59 2338.88,1.12 -55.4,366.86 -525.57,265.57 -882.84,266.32l-6852.71 -0.1c-361.69,-0.39 -849.03,96.83 -899.9,-264.86 476.15,-18.28 907.43,-9.79 1375.42,-10.26 315.1,-0.31 1204.99,62.66 1394.03,-48.09l6.03 -172.34c-261.71,-118.59 -2288.43,-32.67 -2773.08,-52.1 68.84,-352.86 514.73,-264.2 871.04,-265.28l6905.62 0.17c301.92,0.09 857.66,-78.17 857.15,267.44zm-5619.65 -534.74l-2096.05 -2.1c34.29,-195.8 170.99,-248.66 402.72,-248.66l3318.05 0.06c-15.62,301.99 70.14,240.5 -698.67,239.4 -306.09,-0.43 -616.5,11.3 -926.05,11.3zm4960.69 -972.06c-33.26,-126.64 -10.63,-324.91 2.48,-472.28 241.11,-35 473.87,-19.03 488.21,223.42 15.42,260.78 -303.43,331.12 -490.69,248.86zm-1590.34 -1315.58c-1.65,-190.66 8.63,-169.91 201.22,-175.39 111.81,-3.19 259.29,13.87 360.04,33.49 -12.45,163.75 -38.06,169.13 -226.5,170.53 -113.31,0.84 -230.34,-7.77 -334.76,-28.63zm1609.39 163.01l-17.37 -484.89c236.85,-12.59 493.55,-9.95 490.16,247.47 -3.23,244.74 -249.93,279.95 -472.79,237.42zm-7673.79 -1498.69l970.81 -3.01c32.36,278.65 24.27,772.03 10.08,1056.54 -16.31,327 -158.64,571.87 -483.81,583.99 -318.44,11.88 -485.13,-244.84 -502.84,-557.64 -15.17,-268.04 -22.37,-822.03 5.76,-1079.88zm9083.88 -5.65c-87.72,536.04 -540.93,397.89 -589.96,99.17 -25.75,-156.89 -30.87,-1023.86 -4.59,-1180.13 75.9,-451.31 530.64,-383.97 582.91,-56.43 22.2,139.1 30.98,1019.22 11.64,1137.39zm-1041.25 -761.53l168.64 -4.8 -4.66 481.12 -154.29 9.58 -9.69 -485.9zm-3946.28 498.62c-2.37,-0.01 -2717.56,25.01 -2789.2,-16.38 -59.44,-34.34 -24.38,6.93 -48.69,-64.66 46.13,-40.43 -8.73,-15.71 62.57,-34.95l3594.07 3.28c-120.63,182.9 -572.42,113.68 -818.75,112.71zm-2674.95 -389.28c-182.56,-1 -149.26,-28.94 -163.46,-62.18 33.67,-26.7 -58.9,-57.75 190.79,-57.92l1668.66 -7.97c315.98,-1.49 634.27,10.01 952.5,10.35 255.54,0.27 734.6,-88.06 847.29,107.93 -578.3,36.33 -1262.64,4.64 -1852.71,4.94l-1643.07 4.85zm-461.03 372.46c-176.15,14.99 -387.88,4.61 -568.2,4.71 -423.27,0.22 -399.03,45.59 -407.29,-172.08 -12.9,-340.33 -23.63,-792.78 176.42,-974.86 116.58,-106.12 244.59,-130.98 441.61,-132.58 413.42,-3.36 384.25,-31.21 381.18,176.13 -4.19,283.75 20.07,850.31 -23.72,1098.68zm5741.68 1221.35c-135.64,-64.18 -407.51,-43.28 -574.37,-44.23 -17.41,-209.07 102.29,-382.87 -99.88,-382.88l-4773.37 -7.9 -3.91 -497.7 2078.53 -14.97c685.84,0.44 1707.05,154.42 1884.28,-304.6 115.2,-298.37 -63.8,-581.61 -236.12,-676.83 -172.16,-95.14 -655.47,-51.37 -880.86,-51.54 -920.87,0.32 -1928.99,20.94 -2838.49,-11.96 -22.1,-108.41 -8.4,-191.9 -5.36,-300.37 3.22,-115.17 -25.56,-178.17 68.85,-200.08 131.28,-30.48 2535.86,0.32 2536.87,0.32 673.05,2.44 2835.06,-99.4 3277.87,73.36 543.43,212.02 782.27,851.51 567.21,1357.72 -48.96,115.24 -128.62,225.94 -200.09,298.8 -124.97,127.41 -128.02,128.38 -128.02,376.87l-0.41 2566.46c83.26,184.04 330.93,84.1 316.14,505.01l-3102.63 -0.32c-19.69,-667.52 719.06,-378.95 1224.77,-460.69l206.91 -1475.47c55.72,-102.99 477.25,-50.76 564.55,-53.84 338.31,-11.95 463.3,-531.55 117.53,-695.16zm-919.06 -4095.34l681.24 -0.15 -5.78 1331.09 -679.52 -1.38 4.06 -1329.56zm-650.8 963.66l373.37 -0.42 -2.03 368.72 -367.68 -10.75 -3.66 -357.55zm-952.59 -963.6l675.62 12.75 -1.69 1316.43 -675.67 -4.69 1.74 -1324.49zm-2891.81 1329.08c69.99,-449.14 684.36,-364.87 1141.68,-365.8 463.58,-0.94 1018.7,-27.02 1477.53,4.43l-0.67 362.81 -2618.54 -1.44zm4698.03 -1821.47l287.01 13.43 -1.79 200.09 -302.38 -4.86 17.16 -208.66zm-1345.06 2.35c3.71,7.35 8.41,15.98 10.42,22.38 2,6.38 7.05,14.71 9.12,22.86l8.75 176.37 -307.37 -16.33 15.78 -196.5c110.69,-48.9 129.2,-32.78 263.3,-8.78zm-746.13 1166.99c-164.04,25.51 -1481.24,9.1 -1756.2,8.72 -781.9,-1.07 -908.16,75.11 -1159.26,642.37 -538.08,20.43 -814.2,-28.11 -1089.35,291.4 -240.78,279.6 -164.37,815.63 -165.46,1243.18 -1.19,469.1 -9.07,936.3 -0.11,1403.83 8.97,468.15 256.15,667.82 620.86,788.45 18.21,197.78 5.53,436.1 5.54,638.76 0,154.61 -73.73,496.27 118.52,492.76 291.19,-5.32 87.87,-587.29 172.1,-1120.03 86.73,-57.71 183.69,-70.43 277.38,-142.83 403.4,-311.7 300.55,-530.17 346.44,-974.68l4568.31 -0.94 -260.19 2108.96c-245.96,20.35 -489.11,-26.91 -731.4,17.08 -234.13,42.51 -217.28,168.82 -541.3,188.7 -557.44,34.19 -2327.36,4.95 -3008.75,3.2 -601.07,-1.55 -822.72,25.86 -1002.18,512.89 -603.24,17.12 -948.77,138.16 -904.6,794.4 15.64,232.28 191.32,432.42 345.93,500.49 208.89,91.96 503.36,68.38 742.46,57.42 541.34,-24.8 1143.45,-1.06 1691.52,-1.06l3413.12 0c541.04,0 1159.11,-27.76 1690.44,2.04 563.36,31.6 1083.25,77.67 1289.4,-353.97 98.53,-206.3 67.71,-516.65 -30.45,-694.81 -172.15,-312.47 -321.64,-189.25 -549.83,-331.28 -28.47,-127.61 -44.88,-254.23 -107.16,-361.34 -62.86,-108.12 -188.81,-187.95 -194.25,-288.84 1091.92,24.32 835.93,-1018.79 257.29,-1038.43 -320.14,-10.86 -239.76,13.07 -274.89,-84.1 86.96,-63.25 189.45,-33.39 292.71,-42.54 454.78,-40.3 662.75,-626.11 246.61,-937.08 -57.2,-42.74 -130.08,-81.93 -216.63,-94.9 -61.62,-9.24 -96.41,-4.68 -155.14,-6.24 -21.43,-0.58 -57.48,-0.48 -77.5,-3.68l-44.41 -11.14c-255.81,-74.48 189.77,-622.35 255.06,-715.63l237.42 -13.78c76.13,245.26 48.47,351.42 223.03,491.09 139.73,111.79 364.42,175.89 580.56,94.33 400.44,-151.1 346.63,-636.02 346.63,-1115.22 0,-497.63 59.65,-929.51 -341.82,-1097.05 -210.62,-87.9 -416.63,-40.38 -563.34,70.91 -184.58,140.01 -172.67,229.1 -239.34,502.72 -512.03,20.41 -109.29,-72.93 -643.08,-479.37 -256.69,-195.44 -404.6,-263.87 -819.23,-293.15 -31.63,-396.28 30.03,-977.88 -14.82,-1332.67 -33.58,-265.69 -112.89,-157.08 -161.32,-290.02 -106.37,-292.02 97.5,-470.65 -430.07,-469.31 -466.29,1.19 -401.52,65.31 -450.82,477.52 -97.61,202.27 -166.11,-289.11 -174.92,989.72 -609.16,-61 -303.66,141.52 -394.1,-774.09 -13.78,-139.48 -84.53,-150.21 -172.07,-208.11 -4.49,-260.67 -12.82,-452.3 -264.25,-481.6 -764.89,-89.11 -508.91,341.18 -618.23,493.15 -62.64,87.08 -123.86,37.48 -146.24,223.09 -27.06,224.46 16.18,484.35 -18.62,720.71z"/>
   <path class="fil0" d="M21860.98 3998.44c909.5,32.9 1917.62,12.28 2838.49,11.96 225.39,0.17 708.7,-43.6 880.86,51.54 172.32,95.22 351.32,378.46 236.12,676.83 -177.23,459.02 -1198.44,305.04 -1884.28,304.6l-2078.53 14.97 3.91 497.7 4773.37 7.9c202.17,0.01 82.47,173.81 99.88,382.88 166.86,0.95 438.73,-19.95 574.37,44.23 345.77,163.61 220.78,683.21 -117.53,695.16 -87.3,3.08 -508.83,-49.15 -564.55,53.84l-206.91 1475.47c-505.71,81.74 -1244.46,-206.83 -1224.77,460.69l3102.63 0.32c14.79,-420.91 -232.88,-320.97 -316.14,-505.01l0.41 -2566.46c0,-248.49 3.05,-249.46 128.02,-376.87 71.47,-72.86 151.13,-183.56 200.09,-298.8 215.06,-506.21 -23.78,-1145.7 -567.21,-1357.72 -442.81,-172.76 -2604.82,-70.92 -3277.87,-73.36 -1.01,0 -2405.59,-30.8 -2536.87,-0.32 -94.41,21.91 -65.63,84.91 -68.85,200.08 -3.04,108.47 -16.74,191.96 5.36,300.37z"/>
   <path class="fil0" d="M21656.03 9483.34c-467.99,0.47 -899.27,-8.02 -1375.42,10.26 50.87,361.69 538.21,264.47 899.9,264.86l6852.71 0.1c357.27,-0.75 827.44,100.54 882.84,-266.32 -749.07,-35.71 -1579.96,-0.02 -2338.88,-1.12 -231.16,-0.33 -552.61,77.76 -482.63,-218.49 232.39,-116.3 2253.1,-21.13 2822.27,-59.49 0.51,-345.61 -555.23,-267.35 -857.15,-267.44l-6905.62 -0.17c-356.31,1.08 -802.2,-87.58 -871.04,265.28 484.65,19.43 2511.37,-66.49 2773.08,52.1l-6.03 172.34c-189.04,110.75 -1078.93,47.78 -1394.03,48.09z"/>
   <path class="fil0" d="M20603.12 5055.08c-28.13,257.85 -20.93,811.84 -5.76,1079.88 17.71,312.8 184.4,569.52 502.84,557.64 325.17,-12.12 467.5,-256.99 483.81,-583.99 14.19,-284.51 22.28,-777.89 -10.08,-1056.54l-970.81 3.01z"/>
   <path class="fil0" d="M33599.29 12431.31c38.08,-203.02 19.71,-459.97 -95.79,-575.39 -288.96,-288.77 -884.77,124.41 -1017.04,875.72 -180.61,1025.82 895.52,858.07 1112.83,-300.33z"/>
   <path class="fil0" d="M19834.79 11788.89c-220.76,49.33 -299.7,164.88 -404.28,295.26 -376.88,469.91 -458.76,1464.19 170.97,1310.45 632.7,-154.47 1041.97,-1786.4 233.31,-1605.71z"/>
   <path class="fil0" d="M29786.26 13325.36c321.47,106.58 900.61,-14.46 1063.27,-565.38 168.92,-572.09 -42.06,-1017.49 -666.5,-926.14 -62.14,150.24 -405.78,1375.55 -396.77,1491.52z"/>
   <path class="fil0" d="M21563.49 4769.7c43.79,-248.37 19.53,-814.93 23.72,-1098.68 3.07,-207.34 32.24,-179.49 -381.18,-176.13 -197.02,1.6 -325.03,26.46 -441.61,132.58 -200.05,182.08 -189.32,634.53 -176.42,974.86 8.26,217.67 -15.98,172.3 407.29,172.08 180.32,-0.1 392.05,10.28 568.2,-4.71z"/>
   <path class="fil1" d="M21205.29 11876c-2.62,117.82 -277.99,1069.26 -348.71,1289.32 -91.83,285.77 -144.38,141.24 -299.74,244.95 77.11,58.61 484.22,53.46 568.19,0 -49.84,-41.78 -133.5,-49.85 -184.42,-74.26 -0.12,-91.58 207.27,-944.99 281.6,-1101.99 47.52,-100.37 9.02,-32.78 52.92,-79.62l157.86 1279.3c96.98,-20.32 90.75,-41.51 148,-125.96 43.91,-64.77 73.55,-97.64 123.28,-167.81 73.82,-104.19 668.48,-947.79 747.07,-1012.51l-313.22 1103.34c-77.6,199.96 -178.1,90.12 -284.35,189.01l706.21 19.32 7.75 -55.59c-102.45,-2.73 -111.78,4.83 -194.2,-52.61 -18.09,-146.52 163.81,-698.09 212.62,-869.3 260.49,-913.71 159.34,-508.91 412.62,-691.74 -76.24,-51.83 -252.55,-26.47 -363.05,-26.77 -56.35,11.04 -664.58,852.77 -767.87,1004.51l-224.5 305.62c-40.03,47.93 -9.14,14.22 -40.35,45.72l-165.72 -1349.06 -432.09 -4.48c38.08,98.71 28.38,25.31 200.1,130.61z"/>
   <path class="fil0" d="M29687 5049.43c19.34,-118.17 10.56,-998.29 -11.64,-1137.39 -52.27,-327.54 -507.01,-394.88 -582.91,56.43 -26.28,156.27 -21.16,1023.24 4.59,1180.13 49.03,298.72 502.24,436.87 589.96,-99.17z"/>
   <path class="fil1" d="M17247.2 11769.85l178.29 67c18.79,188.56 -153.64,705.89 -206.76,891.79 -245.95,860.82 -146.51,510.2 -397.06,681.63l123.22 28.44c55.77,2.65 129.35,-1.51 187.45,-1.6 109.36,-0.17 269.39,19.32 342.54,-26.84 -50.14,-41.1 -124.56,-44.18 -180.2,-76.97 -1.82,-202.52 141.61,-522.83 179.78,-742.93l780.56 0.03c-32.82,167.47 -85.24,322.26 -133.29,485.97 -111.75,380.75 -77.72,186.79 -297.31,333.9 30.8,21.36 -6.25,9.45 54.95,21.26l258.4 5.55c105.74,-0.2 262.52,22.34 338.66,-26.81 -66.06,-52.49 -100.02,-34.58 -180.09,-71.23 -1.64,-174.53 165.9,-687.21 220.01,-872.36 229.08,-783.81 116.62,-501.27 412.85,-696.83 -31.63,-21.25 4.33,-9.78 -56.31,-21.33 -110.72,-21.09 -565.99,-16.06 -623.56,21.33 201.19,145.57 284.68,-133.25 32.15,740.63l-777.53 -0.29c43.71,-148.97 82.53,-310.01 126.77,-453.2 89.19,-288.62 114.54,-167.8 290.14,-287.14 -67.91,-46.14 -231.62,-26.74 -338.69,-26.75 -103.04,-0.02 -255.74,-24.4 -334.97,26.75z"/>
   <path class="fil0" d="M21890.91 3224.85l2618.54 1.44 0.67 -362.81c-458.83,-31.45 -1013.95,-5.37 -1477.53,-4.43 -457.32,0.93 -1071.69,-83.34 -1141.68,365.8z"/>
   <path class="fil1" d="M29786.26 13325.36c-9.01,-115.97 334.63,-1341.28 396.77,-1491.52 624.44,-91.35 835.42,354.05 666.5,926.14 -162.66,550.92 -741.8,671.96 -1063.27,565.38zm-50.73 -1555.51c220.6,162.98 278.11,-165.07 -4.2,851.92 -107.64,387.76 -121.85,662.34 -335.06,749.92 -109.23,44.86 -48.3,-29.04 -95.87,65.25 349.82,0.63 884.44,36.39 1181.73,-64.86 719.7,-245.12 912.96,-1182.24 378.79,-1519.92 -139.06,-87.9 -330.81,-107.49 -525.52,-109.12 -128.85,-1.08 -516.19,-27.22 -599.87,26.81z"/>
   <polygon class="fil0" points="26382.05,3225.27 27061.57,3226.65 27067.35,1895.56 26386.11,1895.71 "/>
   <path class="fil0" d="M23297.17 8678.4c309.55,0 619.96,-11.73 926.05,-11.3 768.81,1.1 683.05,62.59 698.67,-239.4l-3318.05 -0.06c-231.73,0 -368.43,52.86 -402.72,248.66l2096.05 2.1z"/>
   <polygon class="fil0" points="24780.98,3220.26 25456.65,3224.95 25458.34,1908.52 24782.72,1895.77 "/>
   <path class="fil1" d="M19834.79 11788.89c808.66,-180.69 399.39,1451.24 -233.31,1605.71 -629.73,153.74 -547.85,-840.54 -170.97,-1310.45 104.58,-130.38 183.52,-245.93 404.28,-295.26zm-49.89 -52.18c-1104.06,261.18 -1269.32,1967.37 -130.11,1708.46 1058.4,-240.53 1232.75,-1969.31 130.11,-1708.46z"/>
   <path class="fil1" d="M33599.29 12431.31c-217.31,1158.4 -1293.44,1326.15 -1112.83,300.33 132.27,-751.31 728.08,-1164.49 1017.04,-875.72 115.5,115.42 133.87,372.37 95.79,575.39zm-479.39 -694.6c-429.65,101.64 -733.25,433.96 -867.75,838.43 -187.73,564.57 161.27,1001.02 737.65,870.03 1058.39,-240.53 1232.74,-1969.31 130.1,-1708.46z"/>
   <path class="fil1" d="M23041.99 11769.85c164.39,122.09 249.68,-52.42 130.28,377.32 -45.31,163.1 -88.86,317.54 -132.92,475.76 -266.67,957.78 -162.11,609.44 -425.81,787.34 30.85,21.11 -5.26,9.51 54.89,21.06l1210.83 5.71c86.61,-50.33 159.08,-342.69 188.44,-450.31 -103.96,37.16 -39.11,12.48 -165.04,155.04 -284.76,322.37 -775.85,207.4 -790.69,195.08 -69.35,-122.27 117.05,-587.33 154.67,-746.48 164.99,0 251.14,-14.84 378.04,43.52 22.84,75.73 33.7,176.14 7.63,262.39 94.45,0.07 53.32,19.26 131.09,-268.89 29.86,-110.62 71.78,-240.59 92.83,-351.8 -210.24,57.93 64.2,234.09 -582.82,234.68l184.12 -686.52c771.71,-3.78 550.63,63.89 666.31,313.91 51.89,-39.53 59.51,-105.12 78.55,-182.62 15.05,-61.28 41.25,-138.73 51.03,-208.93 -191,-8.04 -1129.32,-43.56 -1231.43,23.74z"/>
   <path class="fil1" d="M27854.8 11769.85l204.42 74.44c14.09,299.25 -221.39,752.65 -254.26,1069.65 -42.1,405.94 352.17,629.01 767.54,532.79 634.83,-147.04 578.73,-1157.81 802.6,-1551.56 42.1,-74.04 1.91,-46.17 143.78,-94.55 6.58,-2.24 14.06,-4.24 20.4,-6.47l59.42 -24.3c-6.04,-3.64 -15.94,-14.31 -19.49,-8.21l-518.04 8.21c79.3,62.9 157.01,39.81 175.9,134.54 14.66,73.54 -168.34,684.04 -193.54,769.07 -103.74,350.01 -202.77,707.66 -613.56,708.3 -694.27,1.06 -337.04,-747.96 -179.96,-1288.05 118.59,-407.72 163.61,-176.11 325.77,-333.37 -96.09,-40.46 -645.71,-38.65 -720.98,9.51z"/>
   <path class="fil1" d="M25062.05 12836.02c-100.66,13.61 -166.91,517.9 -185.94,627.37 126.31,-42.82 58.54,-103.27 187.07,-96.89 47.63,2.36 159.05,58.34 213.38,74.03 500.87,144.7 996.01,-330.85 553.07,-815.73 -106.15,-116.2 -534.27,-448.43 -372.66,-704.64 75.98,-120.46 260.17,-156.58 421.97,-85.77 158.03,69.17 176.89,210.45 177.74,430.23 92.46,-10.04 86.56,-127.03 112.93,-241.89 23.75,-103.45 50.17,-202.11 63.6,-304.96 -132.05,41.36 -42.26,102.49 -180.06,99.12 -85.71,-2.11 -413.62,-239.22 -692.98,4.58 -474.2,413.85 204.51,768.55 367.76,1088.93 183.92,360.93 -260.5,658.04 -543.55,411.34 -125.9,-109.74 -127.4,-269.8 -122.33,-485.72z"/>
   <path class="fil1" d="M26376.58 12155.13c186.61,-3.6 -49.56,-326.97 604.26,-332.68 -47.03,262.44 -166.25,625.11 -240.41,876.59 -97.04,329.11 -117.18,616.01 -306.51,671.54l-126.29 39.69 162.81 28.73c113.4,1.71 500.67,24.94 573.58,-33.02 -146.6,-83.57 -305.71,57.89 -198.11,-282.27l361.04 -1301.26c159.57,1.14 257.14,-8.05 378.56,47.49 24.01,89.76 -1.42,237.42 24.37,294.28 71.77,-46.89 141.21,-328.96 157.08,-419.05l-1241.87 -2.15c-55.35,31.03 -30.31,11.22 -57.49,74.55l-91.02 337.56z"/>
   <path class="fil1" d="M31581.24 11769.85l36.53 15.61c134.25,48.48 201.96,-12.6 96.57,357.64 -43.81,153.87 -88.75,318.27 -134.04,475.68 -47.83,166.24 -85.71,312.59 -132.17,475.59 -106.95,375.21 -114.56,181.63 -315.06,315.9 61.26,42.15 609.17,45.48 685.78,0 -5.13,-4.01 -13.91,-15.43 -16.63,-10.2 -2.72,5.22 -13.09,-7.97 -16.95,-9.63l-158.73 -48.58c-0.7,-192.38 162.44,-674.21 220.72,-879.67 247.25,-871.79 134.06,-516.16 384.74,-692.34 -86.03,-61.7 -558.07,-58.99 -650.76,0z"/>
   <path class="fil0" d="M21861.06 4335.06c14.2,33.24 -19.1,61.18 163.46,62.18l1643.07 -4.85c590.07,-0.3 1274.41,31.39 1852.71,-4.94 -112.69,-195.99 -591.75,-107.66 -847.29,-107.93 -318.23,-0.34 -636.52,-11.84 -952.5,-10.35l-1668.66 7.97c-249.69,0.17 -157.12,31.22 -190.79,57.92z"/>
   <path class="fil0" d="M24699.47 4786.52c246.33,0.97 698.12,70.19 818.75,-112.71l-3594.07 -3.28c-71.3,19.24 -16.44,-5.48 -62.57,34.95 24.31,71.59 -10.75,30.32 48.69,64.66 71.64,41.39 2786.83,16.37 2789.2,16.38z"/>
   <path class="fil0" d="M28257.86 7706.34c187.26,82.26 506.11,11.92 490.69,-248.86 -14.34,-242.45 -247.1,-258.42 -488.21,-223.42 -13.11,147.37 -35.74,345.64 -2.48,472.28z"/>
   <path class="fil0" d="M28276.91 6553.77c222.86,42.53 469.56,7.32 472.79,-237.42 3.39,-257.42 -253.31,-260.06 -490.16,-247.47l17.37 484.89z"/>
   <polygon class="fil0" points="25738.97,3216.92 26106.65,3227.67 26108.68,2858.95 25735.31,2859.37 "/>
   <path class="fil0" d="M26667.52 6390.76c104.42,20.86 221.45,29.47 334.76,28.63 188.44,-1.4 214.05,-6.78 226.5,-170.53 -100.75,-19.62 -248.23,-36.68 -360.04,-33.49 -192.59,5.48 -202.87,-15.27 -201.22,175.39z"/>
   <polygon class="fil0" points="28655.44,4773.8 28809.73,4764.22 28814.39,4283.1 28645.75,4287.9 "/>
   <path class="fil0" d="M24980.58 1414.51l-15.78 196.5 307.37 16.33 -8.75 -176.37c-2.07,-8.15 -7.12,-16.48 -9.12,-22.86 -2.01,-6.4 -6.71,-15.03 -10.42,-22.38 -134.1,-24 -152.61,-40.12 -263.3,8.78z"/>
   <polygon class="fil0" points="26571.78,1612.04 26874.16,1616.9 26875.95,1416.81 26588.94,1403.38 "/>
  </g>
 </g>
</svg>
